# xmcd CD database file
# 
# Track frame offsets:
# 	150
# 	17029
# 	34162
# 	46898
# 	62104
# 	83150
# 	98261
# 	111966
# 	124767
# 	138039
# 	152379
# 	164934
# 	179564
# 	192448
# 	207814
# 	225930
# 	237425
# 	247808
# 	261834
# 	275082
# 	287550
# 	301679
# 
# Disc length: 4203 seconds
# 
# Submitted via: Nero 5.5.10.35
# 
# Revision: 0
# Processed by: cddbd v1.4PL0 Copyright (c) Steve Scherf et al.
#
DISCID=26106916
DTITLE=Josh White - Volume 6 1945-46
DYEAR=1900
DGENRE=
TTITLE0=Baby Baby
TTITLE1=Dupree
TTITLE2=Waltzing Matilda
TTITLE3=House of the rising sun
TTITLE4=Cotton Eyed Joe
TTITLE5=Jelly Jelly
TTITLE6=Evil Hearted Man
TTITLE7=Backwater Blues
TTITLE8=Frankie and Johnnie
TTITLE9=John Henry
TTITLE10=Beloved Comrade
TTITLE11=Lord Randall My Son
TTITLE12=Jonny has gone for a soldier
TTITLE13=Iwant you Ineed you
TTITLE14=Waltzing Matilda(AFRS128)
TTITLE15=The Riddle Song
TTITLE16=The house I live in
TTITLE17=I left a good deal in Mobile
TTITLE18=Did you ever love a woman
TTITLE19=Watercress
TTITLE20=Molly Malone
TTITLE21=Nobody Knows You When Your Down and Out
EXTD=
EXTT0=
EXTT1=
EXTT2=
EXTT3=
EXTT4=
EXTT5=
EXTT6=
EXTT7=
EXTT8=
EXTT9=
EXTT10=
EXTT11=
EXTT12=
EXTT13=
EXTT14=
EXTT15=
EXTT16=
EXTT17=
EXTT18=
EXTT19=
EXTT20=
EXTT21=
PLAYORDER=
